<svg xmlns="http://www.w3.org/2000/svg" xmlns:xlink="http://www.w3.org/1999/xlink" version="1.1" id="Layer_1" x="0px" y="0px" enable-background="new 0 0 595 842" xml:space="preserve" viewBox="115.43 210.91 360 360">
<path fill-rule="evenodd" clip-rule="evenodd" fill="#000003" d="M295.433,210.914c99.412,0,180,80.588,180,180  c0,99.411-80.588,180-180,180s-180-80.589-180-180C115.433,291.502,196.021,210.914,295.433,210.914L295.433,210.914z   M359.387,255.1c0.987-8.943,1.519-18.241,0.797-27.221c-42.587-17.414-89.768-14.719-125.957-1.405  c0.785,8.869,1.473,17.662,1.73,26.569c19.173,0.689,41.232,4.199,61.416,15.603c0.635,0.356,2.509-0.472,3.104-0.744  C318.396,259.704,339.849,256.626,359.387,255.1L359.387,255.1z M449.02,322.98l4.994-7.059  c-19.514-42.313-58.935-74.362-89.93-86.451c0.894,7.311,0.063,19.051-0.932,26.573c4.583,2.487,8.871,5.885,12.719,9.358  c4.622,4.172,8.929,8.761,13.005,13.465c6.687,7.715,12.861,15.893,18.812,24.185l0.014,0.02c0.579,0.85,1.149,1.741,1.764,2.563  c0.228,0.304,0.521,0.684,0.853,0.88c0.414,0.245,1.173,0.373,1.642,0.471c1.448,0.304,2.854,0.638,4.278,1.048  c6.159,1.773,11.997,4.054,17.76,6.851C439.114,317.368,444.074,320.173,449.02,322.98L449.02,322.98z M249.519,385.166  c0.114-0.113,0.33-0.477,0.401-0.591c0.375-0.598,0.756-1.16,1.196-1.714c1.347-1.697,2.832-3.321,4.321-4.893  c1.912-2.018,3.884-3.983,5.876-5.921c4.721-4.591,9.584-9.054,14.479-13.457c5.972-5.372,12.021-10.662,18.109-15.9  c3.462-2.979,6.938-5.944,10.433-8.884c-0.355-4.757-0.858-9.511-1.417-14.248c-0.653-5.542-1.394-11.075-2.181-16.599  c-1.434-10.047-3.024-20.079-4.731-30.083c-0.255-0.864-2.327-2.2-3.03-2.63c-2.131-1.302-4.506-2.403-6.796-3.396  c-2.102-0.911-4.236-1.756-6.384-2.55c-1.455-0.538-2.936-1.072-4.417-1.532c-2.944-0.915-6.039-1.636-9.049-2.293  c-4.146-0.906-8.337-1.68-12.537-2.295c-4.247-0.622-8.612-1.113-12.906-1.202c-2.775-0.058-6.657,0.017-9.266,1.038  c-6.119,2.395-12.022,5.861-17.405,9.609c-3.718,2.588-7.299,5.398-10.712,8.377c-3.083,2.69-6.063,5.543-8.828,8.56  c-2.93,3.197-5.808,6.475-8.61,9.783c-1.959,2.313-3.918,4.672-5.732,7.102c-0.472,0.632-2.442,3.311-2.532,4.043  c-0.189,1.532-0.163,3.215-0.117,4.757c0.069,2.308,0.239,4.623,0.443,6.923c0.512,5.783,1.259,11.574,2.098,17.319  c0.758,5.188,1.604,10.372,2.568,15.526c0.405,2.165,0.831,4.328,1.298,6.48c0.358,1.654,0.738,3.313,1.185,4.945  c0.294,1.075,0.569,2.153,0.841,3.233c0.197,0.783,0.39,1.571,0.615,2.346c0.23,0.795,0.551,1.836,1.147,2.442  c0.451,0.458,1.088,0.713,1.69,0.901c1.18,0.37,2.507,0.589,3.725,0.802c2.132,0.374,4.264,0.726,6.393,1.12  c3.261,0.604,6.506,1.282,9.739,2.025c10.273,2.361,20.37,5.209,30.51,8.072c2.561,0.723,5.048,1.699,7.63,2.378  C247.849,384.836,249.187,385.205,249.519,385.166L249.519,385.166z M436.553,450.381c2.551-1.7,5.207-5.21,6.889-7.58  c2.978-4.2,5.632-8.752,8.091-13.271c2.334-4.291,4.532-8.67,6.6-13.096c1.503-3.22,3.002-6.534,4.262-9.858  c0.598-1.576,1.295-3.14,1.826-4.737c0.718-2.159,0.946-4.157,0.948-6.429c0.004-4.935-0.478-9.897-1.222-14.772  c-0.795-5.201-1.904-10.363-3.204-15.46c-2.38-9.337-5.419-18.546-8.79-27.571c-0.622-1.666-1.199-3.351-1.813-5.021  c-0.362-0.988-0.734-1.974-1.135-2.948c-0.314-0.764-0.651-1.552-1.049-2.278c-0.787-1.439-4.987-3.866-6.42-4.669  c-4.049-2.274-8.361-4.28-12.631-6.101c-3.761-1.604-7.611-3.108-11.498-4.378c-1.573-0.514-3.171-0.996-4.78-1.388  c-0.945-0.229-1.965-0.454-2.952-0.562c-0.95,1.254-1.791,2.702-2.566,4.045c-0.827,1.433-1.622,2.891-2.487,4.301  c-7.294,11.883-15.031,23.484-22.767,35.081c-0.641,0.96-1.32,1.879-1.976,2.826c-0.205,0.296-0.55,0.784-0.613,1.147  c-0.066,0.385,0.131,1.003,0.242,1.366c0.381,1.231,0.816,2.449,1.2,3.682c3.363,10.833,6.372,21.815,8.8,32.897  c2.379,10.856,4.272,22.023,4.979,33.124c0.053,0.829,0.054,1.636,0.068,2.464c0.002,0.114,0.01,0.611,0.065,0.71  c0.138,0.193,1.633,0.76,1.874,0.855C410.056,438.15,423.271,444.348,436.553,450.381L436.553,450.381z M173.904,306.022  c-1.783-0.802-4.146-1.2-5.995-1.429c-5.104-0.631-22.582-0.474-26.627,2.1c-8.161,13.979-15.576,35.072-18.581,54.911  c-1.999,13.196-5.659,30.661,0.925,65.717c0.451,0.313,7.347,1.252,7.88,1.333c6.707,1.015,16.567,1.18,23.143,0.598  c1.157-0.103,4.143-0.411,5.088-1.103c0.2-0.146,0.317-0.657,0.361-0.894c1.306-6.928,2.833-13.815,4.991-20.533  c4.061-12.64,10.128-23.496,18.087-34.089c0.348-0.463,0.94-1.261,0.926-1.878c-0.009-0.392-0.218-0.897-0.361-1.257  c-0.338-0.854-0.664-1.677-0.933-2.559c-2.123-6.946-3.837-13.991-5.131-21.139c-1.201-6.633-2.033-13.311-2.611-20.025  C174.5,319.202,174.17,312.613,173.904,306.022L173.904,306.022z M306.607,336.875c-0.473,0.304-0.949,0.692-1.388,1.041  c-0.784,0.624-1.556,1.266-2.322,1.911c-2.037,1.712-4.049,3.457-6.058,5.203c-1.837,1.598-3.67,3.202-5.506,4.801  c-1.268,1.105-2.538,2.224-3.833,3.299c-8.118,6.744-15.632,14.173-23.178,21.541c-2.234,2.182-4.457,4.357-6.608,6.623  c-1.362,1.434-2.731,2.917-3.964,4.465c-0.345,0.433-1.62,2.084-1.673,2.611c-0.004,0.388,0.043,0.805,0.09,1.19  c0.072,0.602,0.167,1.204,0.269,1.801c0.257,1.515,0.562,3.026,0.875,4.531c0.501,2.406,1.061,4.807,1.542,7.216  c3.417,17.103,7.524,34.055,11.522,51.027c0.187,0.793,0.318,1.584,0.477,2.382c0.089,0.446,0.198,0.956,0.418,1.359  c0.347,0.636,1.043,1.032,1.673,1.338c4.102,1.99,8.186,3.964,12.382,5.752c7.313,3.117,14.882,5.739,22.502,7.999  c6.035,1.791,12.144,3.36,18.293,4.71c2.062,0.452,4.116,0.932,6.171,1.421c1.432,0.341,2.866,0.693,4.307,0.997  c1.549,0.326,3.416,0.696,4.988,0.349c1.287-0.286,2.496-1.06,3.568-1.799c0.884-0.609,1.747-1.256,2.607-1.899  c1.182-0.884,2.36-1.77,3.549-2.644c7.55-5.545,14.794-11.631,21.647-18.015c6.943-6.469,13.647-13.388,19.666-20.729  c0.445-0.544,0.91-1.046,1.389-1.559c0.209-0.224,0.479-0.503,0.626-0.774c0.157-0.294,0.188-0.669,0.2-0.996  c0.032-0.882-0.058-1.845-0.127-2.725c-0.952-12.043-2.892-23.908-5.572-35.682c-2.61-11.463-5.886-22.759-9.386-33.979  c-0.049-0.157-0.254-0.821-0.385-0.93c-0.07-0.058-0.239-0.121-0.322-0.152c-0.339-0.132-0.679-0.25-1.016-0.388  c-5.765-2.35-11.5-4.788-17.291-7.069c-3.318-1.307-6.656-2.552-10.028-3.716c-3.98-1.375-7.998-2.639-12.039-3.829  c-4.657-1.372-9.307-2.732-14.002-3.974c-3.033-0.801-6.112-1.584-9.192-2.186c-1.098-0.215-2.229-0.418-3.344-0.523  C307.833,336.846,306.912,336.774,306.607,336.875L306.607,336.875z M470.418,402.941c-0.903-0.212-1.326-0.36-2.211-0.632  c-3.979,13.148-18.332,40.894-27.61,50.603c-0.231,0.243-0.728,0.707-0.884,0.997c-0.19,0.353-0.31,1.459-0.37,1.861  c-0.772,5.078-2.755,9.734-4.181,14.668c-1.343,4.645-2.969,9.191-4.809,13.661c-3.506,8.514-7.756,16.714-11.996,24.881  c1.244,1.257,2.357,2.21,3.411,3.628C450.896,482.458,467.316,444.401,470.418,402.941L470.418,402.941z M160.58,432.151  c-12.692,1.924-23.089,0.821-35.759-0.645c4.158,30.072,35.977,80.824,64.819,99.286c0.572,0.509,2.458,2.013,3.157,2.175  c8.387,1.949,16.958,2.741,25.521,1.585c0.156-0.021,0.313-0.041,0.47-0.062c-0.148-0.259-0.292-0.52-0.429-0.786  c-3.356-6.535-6.052-13.527-8.144-20.566c-0.908-3.057-1.709-6.153-2.37-9.273c-0.526-2.488-0.977-5.025-1.245-7.556  c-0.217-2.052-0.337-4.078-0.491-6.131c-0.059-0.782-0.125-1.86-0.484-2.571c-0.466-0.922-1.886-1.942-2.69-2.561  c-1.068-0.823-2.141-1.638-3.202-2.472c-1.627-1.28-3.228-2.594-4.806-3.935c-4.302-3.656-8.367-7.706-12.149-11.895  c-4.397-4.871-8.513-10.061-12.173-15.509C166.626,445.316,163.038,438.874,160.58,432.151L160.58,432.151z M348.34,529.97  c-0.011-0.484-0.09-1.022-0.155-1.475c-0.14-0.962-0.323-1.924-0.517-2.876c-0.507-2.5-1.102-4.991-1.712-7.467  c-0.96-3.891-1.988-7.761-3.023-11.631c-0.391-1.459-0.754-2.93-1.131-4.393c-0.59-2.295-1.189-4.589-1.812-6.875  c-0.659-2.419-1.338-4.85-2.108-7.234c-0.277-0.859-0.568-1.727-0.906-2.563c-0.089-0.221-0.298-0.74-0.471-1.019  c-0.324-0.078-0.669-0.144-0.986-0.212c-0.928-0.2-1.856-0.396-2.785-0.593c-2.69-0.568-5.382-1.133-8.072-1.7  c-2.505-0.528-5.01-1.057-7.513-1.598c-0.931-0.201-1.862-0.404-2.793-0.613c-0.553-0.125-1.115-0.247-1.663-0.394  c-7.853-2.1-15.654-4.38-23.31-7.118c-6.896-2.467-13.624-5.295-20.187-8.548c-0.594-0.294-1.143-0.641-1.715-0.971  c-0.368-0.212-0.791-0.445-1.209-0.537c-0.497-0.109-0.936,0.009-1.384,0.231c-14.942,7.412-29.963,14.573-45.324,21.086  c-1.672,0.709-3.414,1.327-5.109,1.985c-1.067,0.415-2.137,0.837-3.186,1.296c-0.484,0.213-1.094,0.475-1.603,0.765  c-0.061,1.677,0.09,3.453,0.27,5.099c0.255,2.352,0.627,4.7,1.048,7.026c0.426,2.351,0.91,4.693,1.44,7.021  c0.424,1.857,0.875,3.718,1.386,5.553c2.028,7.276,4.961,14.432,8.677,21.011c1.059,1.875,6.648,4.909,8.591,5.94  c3.135,1.665,6.352,3.187,9.586,4.647c6.135,2.771,12.436,5.128,18.891,7.037c9.1,2.691,18.393,4.453,27.82,5.493  c3.825,0.422,8.296-0.293,12.048-1.069c4.244-0.879,8.377-2.068,12.558-3.19c2.822-0.758,5.601-1.723,8.31-2.816  c4.17-1.684,8.299-3.718,12.142-6.056c2.731-1.66,5.417-3.601,7.926-5.58c1.677-1.322,3.328-2.713,4.87-4.19  C346.3,532.416,347.482,531.211,348.34,529.97L348.34,529.97z M292.698,560.133l0.649,6.163  c47.951,0.002,91.137-17.596,125.447-50.73c-1.229-1.084-2.222-2.399-3.266-3.654c-14.117,12.12-37.438,18.077-55.532,19.651  c-1.421,0.124-2.843,0.232-4.266,0.325c-0.887,0.058-1.776,0.106-2.663,0.17c-0.453,0.033-1.56,0.085-1.953,0.344  c-0.165,0.108-0.323,0.293-0.45,0.442c-0.304,0.356-0.594,0.727-0.896,1.084c-1.305,1.535-2.787,2.919-4.315,4.227  c-13.577,11.619-27.169,17.04-44.513,20.653c-1.471,0.306-2.983,0.537-4.469,0.768C295.216,559.77,293.958,559.956,292.698,560.133z  " data-darkreader-inline-fill="" style="--darkreader-inline-fill:#000002;"/>
<path fill-rule="evenodd" clip-rule="evenodd" fill="#FFFFFF" d="M359.387,255.1c0.987-8.943,1.519-18.241,0.797-27.221  c-42.587-17.414-89.768-14.719-125.957-1.405c0.785,8.869,1.473,17.662,1.73,26.569c19.173,0.689,41.232,4.199,61.416,15.603  c0.635,0.356,2.509-0.472,3.104-0.744C318.396,259.704,339.849,256.626,359.387,255.1L359.387,255.1z M449.02,322.98l4.994-7.059  c-19.514-42.313-58.935-74.362-89.93-86.451c0.894,7.311,0.063,19.051-0.932,26.573c4.583,2.487,8.871,5.885,12.719,9.358  c4.622,4.172,8.929,8.761,13.005,13.465c6.687,7.715,12.861,15.893,18.812,24.185l0.014,0.02c0.579,0.85,1.149,1.741,1.764,2.563  c0.228,0.304,0.521,0.684,0.853,0.88c0.414,0.245,1.173,0.373,1.642,0.471c1.448,0.304,2.854,0.638,4.278,1.048  c6.159,1.773,11.997,4.054,17.76,6.851C439.114,317.368,444.074,320.173,449.02,322.98L449.02,322.98z M249.519,385.166  c-0.332,0.039-1.67-0.329-1.957-0.404c-2.582-0.679-5.069-1.655-7.63-2.378c-10.14-2.863-20.237-5.711-30.51-8.072  c-3.233-0.743-6.478-1.421-9.739-2.025c-2.128-0.395-4.261-0.747-6.393-1.12c-1.218-0.213-2.545-0.432-3.725-0.802  c-0.602-0.188-1.239-0.444-1.69-0.901c-0.596-0.605-0.917-1.646-1.147-2.442c-0.225-0.775-0.418-1.563-0.615-2.346  c-0.271-1.08-0.547-2.159-0.841-3.233c-0.446-1.632-0.826-3.292-1.185-4.945c-0.467-2.153-0.893-4.315-1.298-6.48  c-0.964-5.154-1.81-10.337-2.568-15.526c-0.839-5.745-1.586-11.536-2.098-17.319c-0.204-2.3-0.374-4.615-0.443-6.923  c-0.046-1.542-0.073-3.225,0.117-4.757c0.09-0.732,2.06-3.411,2.532-4.043c1.814-2.43,3.772-4.789,5.732-7.102  c2.803-3.308,5.68-6.586,8.61-9.783c2.766-3.017,5.746-5.87,8.828-8.56c3.414-2.979,6.994-5.789,10.712-8.377  c5.383-3.749,11.286-7.214,17.405-9.609c2.609-1.021,6.49-1.096,9.266-1.038c4.294,0.089,8.659,0.58,12.906,1.202  c4.2,0.615,8.39,1.39,12.537,2.295c3.01,0.658,6.105,1.379,9.049,2.293c1.481,0.46,2.962,0.994,4.417,1.532  c2.147,0.794,4.282,1.64,6.384,2.55c2.291,0.993,4.665,2.094,6.796,3.396c0.704,0.43,2.775,1.766,3.03,2.63  c1.707,10.004,3.297,20.036,4.731,30.083c0.787,5.524,1.527,11.057,2.181,16.599c0.559,4.736,1.062,9.491,1.417,14.248  c-3.495,2.94-6.971,5.905-10.433,8.884c-6.088,5.239-12.137,10.529-18.109,15.9c-4.895,4.403-9.758,8.866-14.479,13.457  c-1.992,1.938-3.964,3.903-5.876,5.921c-1.489,1.572-2.974,3.195-4.321,4.893c-0.439,0.554-0.821,1.116-1.196,1.714  C249.849,384.688,249.633,385.053,249.519,385.166L249.519,385.166z M436.553,450.381c-13.281-6.033-26.497-12.23-40.058-17.62  c-0.241-0.096-1.736-0.662-1.874-0.855c-0.056-0.099-0.063-0.596-0.065-0.71c-0.015-0.828-0.016-1.635-0.068-2.464  c-0.707-11.1-2.601-22.268-4.979-33.124c-2.428-11.082-5.437-22.064-8.8-32.897c-0.384-1.233-0.819-2.451-1.2-3.682  c-0.111-0.363-0.309-0.981-0.242-1.366c0.063-0.363,0.408-0.851,0.613-1.147c0.655-0.947,1.335-1.866,1.976-2.826  c7.735-11.597,15.473-23.198,22.767-35.081c0.865-1.41,1.66-2.868,2.487-4.301c0.775-1.343,1.616-2.792,2.566-4.045  c0.987,0.107,2.007,0.332,2.952,0.562c1.609,0.392,3.207,0.874,4.78,1.388c3.887,1.27,7.737,2.774,11.498,4.378  c4.27,1.821,8.582,3.827,12.631,6.101c1.433,0.804,5.633,3.23,6.42,4.669c0.397,0.726,0.734,1.514,1.049,2.278  c0.4,0.974,0.772,1.96,1.135,2.948c0.613,1.669,1.19,3.354,1.813,5.021c3.371,9.025,6.41,18.234,8.79,27.571  c1.3,5.097,2.409,10.259,3.204,15.46c0.744,4.875,1.226,9.837,1.222,14.772c-0.002,2.272-0.23,4.27-0.948,6.429  c-0.531,1.597-1.229,3.161-1.826,4.737c-1.26,3.324-2.759,6.638-4.262,9.858c-2.067,4.426-4.266,8.805-6.6,13.096  c-2.459,4.52-5.113,9.071-8.091,13.271C441.76,445.171,439.104,448.681,436.553,450.381L436.553,450.381z M173.904,306.022  c-1.783-0.802-4.146-1.2-5.995-1.429c-5.104-0.631-22.582-0.474-26.627,2.1c-8.161,13.979-15.576,35.072-18.581,54.911  c-1.999,13.196-5.659,30.661,0.925,65.717c0.451,0.313,7.347,1.252,7.88,1.333c6.707,1.015,16.567,1.18,23.143,0.598  c1.157-0.103,4.143-0.411,5.088-1.103c0.2-0.146,0.317-0.657,0.361-0.894c1.306-6.928,2.833-13.815,4.991-20.533  c4.061-12.64,10.128-23.496,18.087-34.089c0.348-0.463,0.94-1.261,0.926-1.878c-0.009-0.392-0.218-0.897-0.361-1.257  c-0.338-0.854-0.664-1.677-0.933-2.559c-2.123-6.946-3.837-13.991-5.131-21.139c-1.201-6.633-2.033-13.311-2.611-20.025  C174.5,319.202,174.17,312.613,173.904,306.022L173.904,306.022z M306.607,336.875c-0.473,0.304-0.949,0.692-1.388,1.041  c-0.784,0.624-1.556,1.266-2.322,1.911c-2.037,1.712-4.049,3.457-6.058,5.203c-1.837,1.598-3.67,3.202-5.506,4.801  c-1.268,1.105-2.538,2.224-3.833,3.299c-8.118,6.744-15.632,14.173-23.178,21.541c-2.234,2.182-4.457,4.357-6.608,6.623  c-1.362,1.434-2.731,2.917-3.964,4.465c-0.345,0.433-1.62,2.084-1.673,2.611c-0.004,0.388,0.043,0.805,0.09,1.19  c0.072,0.602,0.167,1.204,0.269,1.801c0.257,1.515,0.562,3.026,0.875,4.531c0.501,2.406,1.061,4.807,1.542,7.216  c3.417,17.103,7.524,34.055,11.522,51.027c0.187,0.793,0.318,1.584,0.477,2.382c0.089,0.446,0.198,0.956,0.418,1.359  c0.347,0.636,1.043,1.032,1.673,1.338c4.102,1.99,8.186,3.964,12.382,5.752c7.313,3.117,14.882,5.739,22.502,7.999  c6.035,1.791,12.144,3.36,18.293,4.71c2.062,0.452,4.116,0.932,6.171,1.421c1.432,0.341,2.866,0.693,4.307,0.997  c1.549,0.326,3.416,0.696,4.988,0.349c1.287-0.286,2.496-1.06,3.568-1.799c0.884-0.609,1.747-1.256,2.607-1.899  c1.182-0.884,2.36-1.77,3.549-2.644c7.55-5.545,14.794-11.631,21.647-18.015c6.943-6.469,13.647-13.388,19.666-20.729  c0.445-0.544,0.91-1.046,1.389-1.559c0.209-0.224,0.479-0.503,0.626-0.774c0.157-0.294,0.188-0.669,0.2-0.996  c0.032-0.882-0.058-1.845-0.127-2.725c-0.952-12.043-2.892-23.908-5.572-35.682c-2.61-11.463-5.886-22.759-9.386-33.979  c-0.049-0.157-0.254-0.821-0.385-0.93c-0.07-0.058-0.239-0.121-0.322-0.152c-0.339-0.132-0.679-0.25-1.016-0.388  c-5.765-2.35-11.5-4.788-17.291-7.069c-3.318-1.307-6.656-2.552-10.028-3.716c-3.98-1.375-7.998-2.639-12.039-3.829  c-4.657-1.372-9.307-2.732-14.002-3.974c-3.033-0.801-6.112-1.584-9.192-2.186c-1.098-0.215-2.229-0.418-3.344-0.523  C307.833,336.846,306.912,336.774,306.607,336.875L306.607,336.875z M470.418,402.941c-0.903-0.212-1.326-0.36-2.211-0.632  c-3.979,13.148-18.332,40.894-27.61,50.603c-0.231,0.243-0.728,0.707-0.884,0.997c-0.19,0.353-0.31,1.459-0.37,1.861  c-0.772,5.078-2.755,9.734-4.181,14.668c-1.343,4.645-2.969,9.191-4.809,13.661c-3.506,8.514-7.756,16.714-11.996,24.881  c1.244,1.257,2.357,2.21,3.411,3.628C450.896,482.458,467.316,444.401,470.418,402.941L470.418,402.941z M160.58,432.151  c-12.692,1.924-23.089,0.821-35.759-0.645c4.158,30.072,35.977,80.824,64.819,99.286c0.572,0.509,2.458,2.013,3.157,2.175  c8.387,1.949,16.958,2.741,25.521,1.585c0.156-0.021,0.313-0.041,0.47-0.062c-0.148-0.259-0.292-0.52-0.429-0.786  c-3.356-6.535-6.052-13.527-8.144-20.566c-0.908-3.057-1.709-6.153-2.37-9.273c-0.526-2.488-0.977-5.025-1.245-7.556  c-0.217-2.052-0.337-4.078-0.491-6.131c-0.059-0.782-0.125-1.86-0.484-2.571c-0.466-0.922-1.886-1.942-2.69-2.561  c-1.068-0.823-2.141-1.638-3.202-2.472c-1.627-1.28-3.228-2.594-4.806-3.935c-4.302-3.656-8.367-7.706-12.149-11.895  c-4.397-4.871-8.513-10.061-12.173-15.509C166.626,445.316,163.038,438.874,160.58,432.151L160.58,432.151z M348.34,529.97  c-0.857,1.241-2.04,2.446-3.112,3.474c-1.542,1.478-3.193,2.868-4.87,4.19c-2.509,1.979-5.194,3.92-7.926,5.58  c-3.843,2.338-7.972,4.372-12.142,6.056c-2.709,1.094-5.487,2.059-8.31,2.816c-4.181,1.122-8.313,2.312-12.558,3.19  c-3.751,0.776-8.223,1.491-12.048,1.069c-9.428-1.04-18.72-2.802-27.82-5.493c-6.455-1.909-12.756-4.266-18.891-7.037  c-3.234-1.461-6.451-2.982-9.586-4.647c-1.943-1.031-7.532-4.065-8.591-5.94c-3.716-6.579-6.649-13.734-8.677-21.011  c-0.511-1.835-0.962-3.695-1.386-5.553c-0.53-2.328-1.014-4.671-1.44-7.021c-0.421-2.326-0.793-4.675-1.048-7.026  c-0.179-1.646-0.33-3.422-0.27-5.099c0.509-0.29,1.119-0.552,1.603-0.765c1.049-0.459,2.118-0.881,3.186-1.296  c1.695-0.658,3.437-1.276,5.109-1.985c15.36-6.513,30.381-13.674,45.324-21.086c0.449-0.223,0.888-0.341,1.384-0.231  c0.418,0.092,0.841,0.325,1.209,0.537c0.572,0.33,1.121,0.677,1.715,0.971c6.563,3.253,13.291,6.081,20.187,8.548  c7.656,2.738,15.458,5.019,23.31,7.118c0.548,0.146,1.11,0.269,1.663,0.394c0.931,0.209,1.862,0.412,2.793,0.613  c2.503,0.541,5.008,1.069,7.513,1.598c2.69,0.567,5.382,1.132,8.072,1.7c0.929,0.196,1.857,0.393,2.785,0.593  c0.317,0.068,0.662,0.134,0.986,0.212c0.173,0.278,0.382,0.798,0.471,1.019c0.338,0.837,0.629,1.704,0.906,2.563  c0.771,2.385,1.449,4.815,2.108,7.234c0.622,2.286,1.222,4.58,1.812,6.875c0.377,1.463,0.74,2.934,1.131,4.393  c1.035,3.87,2.063,7.74,3.023,11.631c0.61,2.476,1.205,4.967,1.712,7.467c0.193,0.952,0.377,1.914,0.517,2.876  C348.25,528.947,348.329,529.485,348.34,529.97L348.34,529.97z M292.698,560.133c1.259-0.177,2.518-0.363,3.773-0.558  c1.485-0.23,2.998-0.462,4.469-0.768c17.344-3.613,30.936-9.034,44.513-20.653c1.528-1.308,3.011-2.691,4.315-4.227  c0.303-0.357,0.593-0.728,0.896-1.084c0.127-0.149,0.285-0.334,0.45-0.442c0.394-0.259,1.5-0.311,1.953-0.344  c0.887-0.063,1.776-0.112,2.663-0.17c1.423-0.093,2.845-0.201,4.266-0.325c18.095-1.574,41.415-7.531,55.532-19.651  c1.044,1.255,2.037,2.57,3.266,3.654c-34.311,33.135-77.496,50.732-125.447,50.73L292.698,560.133z" data-darkreader-inline-fill="" style="--darkreader-inline-fill:#181a1b;"/>
</svg>