<?xml version="1.0" standalone="no"?>
<!DOCTYPE svg PUBLIC "-//W3C//DTD SVG 20010904//EN"
 "http://www.w3.org/TR/2001/REC-SVG-20010904/DTD/svg10.dtd">
<svg version="1.0" xmlns="http://www.w3.org/2000/svg"
 width="700.000000pt" height="700.000000pt" viewBox="0 0 700.000000 700.000000"
 preserveAspectRatio="xMidYMid meet">
<metadata>
Created by potrace 1.14, written by Peter Selinger 2001-2017
</metadata>
<g transform="translate(0.000000,700.000000) scale(0.100000,-0.100000)"
fill="#000000" stroke="none">
<path d="M3280 6994 c-19 -2 -84 -9 -145 -14 -636 -62 -1266 -316 -1795 -726
-148 -114 -480 -446 -594 -594 -411 -530 -654 -1132 -728 -1795 -17 -155 -17
-575 0 -730 74 -663 317 -1265 728 -1795 114 -148 446 -480 594 -594 532 -412
1105 -644 1795 -728 134 -16 591 -16 730 0 592 69 1090 249 1570 568 188 125
332 241 504 409 596 581 942 1292 1043 2140 16 139 16 595 0 730 -84 690 -316
1263 -728 1795 -114 148 -446 480 -594 594 -521 403 -1094 640 -1750 722 -110
14 -556 27 -630 18z m650 -109 c256 -32 519 -96 739 -178 l86 -32 8 -45 c8
-45 3 -263 -9 -412 l-7 -77 -56 -6 c-495 -52 -761 -109 -1034 -221 l-108 -44
-107 54 c-272 136 -594 219 -956 246 -77 6 -141 12 -141 13 -1 1 -7 88 -14
192 -6 105 -14 220 -17 256 l-7 67 58 21 c210 79 577 155 865 180 149 13 551
5 700 -14z m1039 -302 c337 -156 672 -401 982 -719 161 -166 277 -309 404
-499 89 -132 225 -377 225 -404 0 -7 -21 -41 -46 -77 l-46 -64 -92 51 c-213
118 -430 210 -580 245 -64 16 -83 25 -102 49 -13 17 -77 102 -142 190 -278
372 -477 577 -736 758 -18 12 -18 20 -6 168 7 85 11 201 8 257 -4 119 -18 114
131 45z m-2424 -484 c199 -17 470 -72 625 -126 94 -33 287 -123 318 -149 18
-15 26 -41 42 -134 60 -351 140 -946 140 -1045 0 -39 -3 -43 -153 -170 -389
-332 -812 -729 -889 -834 l-25 -35 -99 31 c-109 35 -499 142 -609 168 -38 9
-160 34 -269 56 -121 23 -206 45 -217 55 -57 51 -199 886 -199 1168 0 76 2 84
34 131 85 126 330 399 452 506 175 153 314 247 489 331 118 56 174 64 360 47z
m-1453 -932 l43 -13 7 -114 c17 -251 40 -480 63 -617 25 -146 82 -381 116
-482 l19 -55 -22 -31 c-208 -279 -341 -573 -420 -928 -26 -118 -37 -151 -53
-160 -36 -20 -381 -22 -533 -2 -74 10 -139 23 -146 31 -14 14 -36 141 -62 357
-50 416 12 976 157 1424 51 158 107 298 164 417 72 147 76 152 135 166 124 30
438 34 532 7z m4734 -123 c189 -54 522 -205 607 -275 41 -34 78 -121 182 -434
126 -375 179 -634 180 -875 l0 -155 -49 -120 c-66 -159 -226 -475 -306 -604
-36 -57 -94 -134 -130 -172 l-65 -69 -255 116 c-140 64 -322 144 -405 178
-174 73 -157 47 -175 259 -24 282 -119 719 -241 1109 -21 69 -39 131 -39 137
0 6 71 118 157 248 136 206 314 486 405 638 15 25 31 45 36 45 6 0 50 -11 98
-26z m-1916 -524 c308 -76 550 -154 871 -282 l277 -110 45 -151 c131 -433 206
-780 242 -1121 8 -80 15 -150 15 -155 0 -21 -160 -201 -315 -356 -175 -175
-335 -313 -547 -471 -139 -104 -182 -126 -234 -117 -74 13 -432 98 -539 128
-318 89 -756 270 -775 319 -25 62 -276 1201 -287 1298 -5 52 -3 61 21 93 107
140 523 529 953 893 89 75 94 75 273 32z m2974 -1246 c20 -8 21 -48 1 -201
-52 -400 -169 -776 -349 -1128 -139 -272 -284 -484 -481 -706 l-96 -108 -34
38 -35 38 83 164 c46 90 107 220 135 288 55 129 174 493 187 571 5 32 20 59
55 100 155 180 393 622 503 933 7 19 9 20 31 11z m-6517 -580 c160 -16 409
-14 485 2 21 5 29 2 34 -12 4 -11 24 -56 45 -102 127 -277 391 -602 680 -838
69 -56 131 -109 137 -117 7 -8 17 -61 22 -118 22 -234 92 -483 200 -716 21
-46 34 -85 29 -89 -20 -12 -288 -5 -382 10 -111 18 -113 19 -211 89 -369 261
-756 752 -1012 1282 -91 188 -151 346 -182 475 -32 131 -35 150 -23 150 5 0
86 -7 178 -16z m2653 -619 c276 -138 653 -260 1060 -345 113 -23 211 -48 219
-55 7 -7 26 -57 43 -111 41 -138 175 -669 183 -727 l7 -47 -67 -64 c-184 -177
-416 -301 -710 -380 -277 -74 -362 -79 -610 -36 -356 61 -752 207 -993 364
-62 40 -66 45 -123 161 -32 66 -75 169 -94 229 -46 140 -94 381 -98 482 l-2
78 170 71 c223 94 485 214 720 330 105 51 193 94 197 94 3 1 47 -19 98 -44z
m2849 -965 l31 -39 -129 -114 c-251 -218 -473 -367 -766 -512 -440 -218 -889
-332 -1378 -352 -180 -7 -177 -8 -177 69 0 41 3 48 23 52 301 57 461 104 625
181 134 64 301 178 410 279 89 83 93 86 139 86 80 0 293 28 424 56 265 55 556
173 699 283 36 28 65 50 66 51 0 0 15 -18 33 -40z"/>
</g>
</svg>
